/* XPM */ 
static const unsigned char * xzmenu_xpm[] = {
"16 16 110 2",
"  	c None",
"! 	c black",
"# 	c #819BAF",
"$ 	c #A2B3C0",
"% 	c #5E778B",
"& 	c #587185",
"' 	c #8BA0B2",
"( 	c #5D778C",
") 	c #A6B7C5",
"* 	c #FDFDFD",
"+ 	c #93A5B4",
", 	c #A7B8C6",
"- 	c #FCFCFD",
". 	c #869AAA",
"0 	c #718798",
"1 	c #F9FBFC",
"2 	c #C5D4DF",
"3 	c #4F6475",
"4 	c #EBF3F8",
"5 	c #DAE6EF",
"6 	c #394B5A",
"7 	c #BCCCD9",
"8 	c #F8FAFC",
"9 	c #718697",
": 	c #31424F",
"; 	c #C2D1DE",
"< 	c #DCE7F0",
"= 	c #596D7D",
"> 	c #556A7B",
"? 	c #F1F6FA",
"@ 	c #ECF2F8",
"A 	c #D9E5EE",
"B 	c #B1C1CE",
"C 	c #415463",
"D 	c #7692A9",
"E 	c #809AAB",
"F 	c #BCE2F3",
"G 	c #C3E7F5",
"H 	c #C2E6F4",
"I 	c #91B3C5",
"J 	c #859BAD",
"K 	c #4D667A",
"L 	c #9FBCD3",
"M 	c #CDE0EE",
"N 	c #B5C6D3",
"O 	c #AABBC9",
"P 	c #D2E2EE",
"Q 	c #FAFBFB",
"R 	c #FAFAFB",
"S 	c #D2DDE6",
"T 	c #475865",
"U 	c #72889A",
"V 	c #B4CEE2",
"W 	c #4A657A",
"X 	c #AAC6D8",
"Y 	c #CDDCE9",
"Z 	c #455662",
"[ 	c #546A7B",
"] 	c #E9F1F7",
"^ 	c #95A8B7",
"_ 	c #9BB4C5",
"` 	c #F3F6F9",
"a 	c #C0D5E6",
"b 	c #AFC8DC",
"c 	c #273845",
"d 	c #B9CBD9",
"e 	c #EAF2F8",
"f 	c #465C6D",
"g 	c #364D5B",
"h 	c #ACC1D1",
"i 	c #F2F5F8",
"j 	c #A4BFD5",
"k 	c #D3DFE9",
"l 	c #546F84",
"m 	c #69849A",
"n 	c #5F7A90",
"o 	c #374B59",
"p 	c #BDD0DD",
"q 	c #EDF3F7",
"r 	c #8092A1",
"s 	c #273B4B",
"t 	c #6D869B",
"u 	c #6D879B",
"v 	c #476071",
"w 	c #C9D9E6",
"x 	c #EBF1F6",
"y 	c #6D7F8E",
"z 	c #425A6B",
"{ 	c #CBDBE7",
"| 	c #F5F7F9",
"} 	c #758795",
"~ 	c #B7CBDA",
" !	c #FBFBFB",
"!!	c #DEE8F0",
"#!	c #10161B",
"$!	c #3E576A",
"%!	c #557085",
"&!	c #7B95A8",
"'!	c #F7F9FA",
"(!	c #F8F9FA",
")!	c #CBD9E4",
"*!	c #BDCEDB",
"+!	c #E7EFF5",
",!	c #E8F0F6",
"-!	c #465866",
".!	c #668399",
"0!	c #92A5B5",
"1!	c #92A5B4",
"2!	c #91A5B4",
"3!	c #486073",
"          # $ %       & ' (     ",
"          ) * +       , - .     ",
"          0 1 2     3 4 5 6     ",
"            7 8 9 : ; < =       ",
"            > ? @ A B C         ",
"          D E F G H I J J K     ",
"          L M N O P Q R S T     ",
"        U V W     X R Y Z       ",
"      [ ] ^     _ ` a b c       ",
"      d e f g h i j k ? l       ",
"      m n o p q r s t u         ",
"        v w x y                 ",
"      z { | }                   ",
"      ~  !!!#!    $!%!          ",
"    &!'! !(!)!*!P +!,!-!        ",
"    .!0!0!0!1!1!0!0!2!3!        "};