/* XPM */ 
static const unsigned char * addons_xpm[] = {
"16 16 149 2",
"  	c None",
"! 	c black",
"# 	c #81CF77",
"$ 	c #7FCD74",
"% 	c #7CCA72",
"& 	c #79C76F",
"' 	c #81CD77",
"( 	c #A6D99B",
") 	c #A1D897",
"* 	c #75C36C",
"+ 	c #7BC971",
", 	c #A1D896",
"- 	c #96D28C",
". 	c #71BF68",
"0 	c #82D078",
"1 	c #80CE75",
"2 	c #7DCB73",
"3 	c #7AC970",
"4 	c #77C56E",
"5 	c #A0D796",
"6 	c #9CD592",
"7 	c #6DBB64",
"8 	c #69B761",
"9 	c #66B45E",
": 	c #62B05A",
"; 	c #7FCE75",
"< 	c #A5D99A",
"= 	c #A3D898",
"> 	c #A1D797",
"? 	c #A0D795",
"@ 	c #9DD594",
"A 	c #9BD492",
"B 	c #97D18E",
"C 	c #94D08B",
"D 	c #93CF89",
"E 	c #87AD4A",
"F 	c #D8A457",
"G 	c #DBB084",
"H 	c #D09C45",
"I 	c #D1942A",
"J 	c #7CCB72",
"K 	c #A2D898",
"L 	c #86CB78",
"M 	c #76C268",
"N 	c #72C164",
"O 	c #70C063",
"P 	c #72C166",
"Q 	c #70BF65",
"R 	c #AFC765",
"S 	c #E7BD76",
"T 	c #F0D2B3",
"U 	c #FFF3E5",
"V 	c #EFD2AB",
"W 	c #C78B47",
"X 	c #76C36C",
"Y 	c #84C97B",
"Z 	c #71C064",
"[ 	c #6EBF61",
"] 	c #6BBD5E",
"^ 	c #68BC5C",
"_ 	c #8EB846",
"` 	c #ECD57D",
"a 	c #F9E3B1",
"b 	c #E7BF8A",
"c 	c #F6D3AD",
"d 	c #FCE0C3",
"e 	c #D39E65",
"f 	c #6EBC65",
"g 	c #98D28F",
"h 	c #6CBE5F",
"i 	c #69BC5D",
"j 	c #67BB5A",
"k 	c #87B949",
"l 	c #EDD47B",
"m 	c #FDF6C3",
"n 	c #F6DD6B",
"o 	c #EDCA6C",
"p 	c #D7A262",
"q 	c #C89A5A",
"r 	c #6AB862",
"s 	c #95D18C",
"t 	c #68BB5C",
"u 	c #65BA59",
"v 	c #85B647",
"w 	c #EED378",
"x 	c #FDF7C7",
"y 	c #F5DC5E",
"z 	c #F7E25A",
"{ 	c #F2D679",
"| 	c #D79C45",
"} 	c #5B903E",
"~ 	c #79BF71",
" !	c #92CF8A",
"!!	c #63BA57",
"#!	c #7DA740",
"$!	c #E7CB76",
"%!	c #F5DC5D",
"&!	c #F7E159",
"'!	c #F1D47A",
"(!	c #D49441",
")!	c #608F3B",
"*!	c #3E8D39",
"+!	c #94CF8A",
",!	c #91CF89",
"-!	c #71C068",
".!	c #9AB462",
"0!	c #D4B772",
"1!	c #FDF6C1",
"2!	c #F7DF62",
"3!	c #F8E25C",
"4!	c #F0D378",
"5!	c #D69442",
"6!	c #64B35D",
"7!	c #90CF87",
"8!	c #60B855",
"9!	c #92A55C",
":!	c #D5B579",
";!	c #D1B68F",
"<!	c #E4C954",
"=!	c #F5DF5A",
">!	c #EDD077",
"?!	c #D29745",
"@!	c #548F3A",
"A!	c #60AE59",
"B!	c #8DCD85",
"C!	c #8BCC83",
"D!	c #A98842",
"E!	c #FFF2E0",
"F!	c #D89953",
"G!	c #BD7919",
"H!	c #C49748",
"I!	c #B9883A",
"J!	c #8AB86A",
"K!	c #3C8C38",
"L!	c #5CAA55",
"M!	c #58A651",
"N!	c #54A34E",
"O!	c #81652B",
"P!	c #F9C793",
"Q!	c #F9C990",
"R!	c #C98440",
"S!	c #A4651D",
"T!	c #558A38",
"U!	c #3C8B38",
"V!	c #398935",
"W!	c #543C11",
"X!	c #865E27",
"Y!	c #BC8748",
"Z!	c #BB8C41",
"                                ",
"          # $ % &               ",
"          ' ( ) *               ",
"          + , - .               ",
"  0 1 2 3 4 5 6 7 8 9 :         ",
"  ; < = > ? @ A B C D E F G H I ",
"  J K 5 L M N O P Q R S T U V W ",
"  & X Y A Z [ ] ^ _ ` a b c d e ",
"      f g h i j k l m n o p q   ",
"      r s t u v w x y z { | }   ",
"  7 8 ~  !!!#!$!x %!&!'!(!)!*!  ",
"  8 +!,!-!.!0!1!2!3!4!5!        ",
"  6!7!8!9!:!;!<!=!>!?!@!        ",
"  A!B!C!D!E!F!G!H!I!J!K!        ",
"  L!M!N!O!P!Q!R!S!T!U!V!        ",
"        W!X!Y!Z!                "};