/* XPM */ 
static const unsigned char * search_xpm[] = {
"16 16 87 1",
" 	c None",
"!	c black",
"#	c #828E9B",
"$	c #A3AFBB",
"%	c #84909C",
"&	c #929FAD",
"'	c #545C64",
"(	c #77828D",
")	c #ADB7C2",
"*	c #67717B",
"+	c #8D9AA7",
",	c #616A73",
"-	c #8996A3",
".	c #7C8894",
"0	c #85919E",
"1	c #33383D",
"2	c #3F454B",
"3	c #69737D",
"4	c #6F7984",
"5	c #393E44",
"6	c #818D9A",
"7	c #707A85",
"8	c #474E55",
"9	c #43494F",
":	c #6B757F",
";	c #5C656D",
"<	c #576B81",
"=	c #7C90A5",
">	c #738393",
"?	c #0B0B0C",
"@	c #93A0AE",
"A	c #A1ADB9",
"B	c #6C7681",
"C	c #7A90A9",
"D	c #93A6B9",
"E	c #8DA3B6",
"F	c #8096AF",
"G	c #7C8C9E",
"H	c #5A6C82",
"I	c #566270",
"J	c #030404",
"K	c #95A2B0",
"L	c #6A747E",
"M	c #636C76",
"N	c #5A626B",
"O	c #25292D",
"P	c #5D666F",
"Q	c #4D545B",
"R	c #373C41",
"S	c #495057",
"T	c #32373C",
"U	c #2A2E32",
"V	c #1C1F22",
"W	c #181B1D",
"X	c #151719",
"Y	c #1F2124",
"Z	c #141618",
"[	c #0D0E0F",
"]	c #010101",
"^	c #4B5159",
"_	c #B9C2CC",
"`	c #A9B3BF",
"a	c #8A97A5",
"b	c #24282B",
"c	c #78838F",
"d	c #ACB7C1",
"e	c #0E0F11",
"f	c #454B52",
"g	c #6E7782",
"h	c #656F78",
"i	c #5E6770",
"j	c #2D3236",
"k	c #646E77",
"l	c #66707A",
"m	c #08090A",
"n	c #40464C",
"o	c #272A2E",
"p	c #171A1C",
"q	c #050506",
"r	c #3A4045",
"s	c #2C3135",
"t	c #212427",
"u	c #2F3338",
"v	c #202326",
"w	c #1A1C1F",
"x	c #090A0B",
"y	c #060707",
"                ",
"                ",
"    #$% &%'     ",
"    ()' *+#     ",
"  ,-.01 23415   ",
"  6%789:;<=>8?  ",
" @ABBCDEFGHI.J  ",
" %KL*MNO8:*MP!  ",
" QRSTUV WXYZ[]  ",
" ^0_`a1 bcd`+e  ",
" fg_hij Y4dklm  ",
" ng_klo p.dk*q  ",
" r4)*Ls t.A*L]  ",
" 1uUbvw exyJ!!  ",
"                ",
"                "};